<?xml version="1.0" encoding="UTF-8" standalone="no"?>
<!DOCTYPE svg PUBLIC "-//W3C//DTD SVG 1.1//EN" "http://www.w3.org/Graphics/SVG/1.1/DTD/svg11.dtd">
<svg width="100%" height="100%" viewBox="0 0 2048 2048" version="1.1" xmlns="http://www.w3.org/2000/svg" xmlns:xlink="http://www.w3.org/1999/xlink" xml:space="preserve" xmlns:serif="http://www.serif.com/" style="fill-rule:evenodd;clip-rule:evenodd;stroke-linecap:round;stroke-linejoin:round;stroke-miterlimit:1.5;">
    <g id="Layer1">
    </g>
    <g id="Layer2">
    </g>
    <g id="Layer3">
    </g>
    <g id="Layer4">
    </g>
    <g id="Layer6">
    </g>
    <g id="Layer9">
    </g>
    <g id="Layer91" serif:id="Layer9">
    </g>
    <g id="Layer7">
    </g>
    <g transform="matrix(0.997446,0,0,1.00079,0.177817,-1.55603)">
        <g id="Layer10">
            <path d="M394.026,68.144C782.986,48.754 1029.38,265.632 1029.38,265.632C1293.26,31.282 1656.37,75.314 1656.37,75.314L1983.32,705.936C1560.36,628.316 1032.81,868.58 1032.81,868.58C256.798,572.975 69.632,713.771 69.632,713.771L394.026,68.144ZM1025.62,255.485L1024.45,864.236M252.424,711.739L163.519,950.239C163.519,950.239 419.505,761.967 1018,923.574C1018,923.574 1529.31,780.732 1876.31,932.957C1876.31,932.957 1798.8,713.501 1797.19,711.934M240.304,1054.88L1806.22,1053.28M522.914,1186.92L1535.77,1198.15M517.986,1186.47C517.986,1186.47 360.468,1177.24 272.213,1257.66C183.958,1338.09 110.532,1476.88 275.987,1629.9C441.442,1782.91 606.11,1636.15 613.018,1555.64C619.926,1475.13 603.611,1404.93 513.007,1363.88C422.404,1322.82 322.751,1455.59 441.988,1519.3M1532.22,1199.3C1532.22,1199.3 1689.74,1190.07 1777.99,1270.49C1866.25,1350.92 1939.67,1489.72 1774.22,1642.73C1608.76,1795.74 1444.09,1648.99 1437.19,1568.47C1430.28,1487.96 1446.59,1417.77 1537.2,1376.71C1627.8,1335.65 1727.45,1468.42 1608.22,1532.13M408.723,1970.48L1636.88,1971.9M478.315,1691.27L537.47,1962.56C537.47,1962.56 483.794,1697.62 478.315,1691.27ZM537.47,1962.56L777.776,1960.7L729.213,1654.1L777.776,1960.7L938.457,1962.21L902.176,1375.19L938.457,1962.21L1110.3,1959.78L1147.14,1377.98L1110.3,1959.78L1265.04,1958.1L1312.48,1655.2L1265.04,1958.1L1512.61,1963.49L1560.61,1718.08L1512.61,1963.49" style="fill:none;stroke:black;stroke-width:66.14px;"/>
        </g>
    </g>
</svg>
